<?xml version="1.0" standalone="no"?>
<!DOCTYPE svg PUBLIC "-//W3C//DTD SVG 1.1//EN"
"http://www.w3.org/Graphics/SVG/1.1/DTD/svg11.dtd">
<svg xmlns="http://www.w3.org/2000/svg" version="1.1">
	<rect x="460" y="50" rx="2" ry="2" width="312" height="312" style="fill:RGB(103,73,30);stroke:RGB(168,123,45);stroke-width:5;opacity:1"/>
	<rect id="v00" x="466" y="56" rx="8" ry="8" width="50" height="100" style="visibility:hidden;fill:RGB(220,141,61);stroke:Sienna;stroke-width:3;opacity:1"/>
	<rect id="h00" x="466" y="56" rx="8" ry="8" width="100" height="50" style="visibility:hidden;fill:RGB(220,141,61);stroke:Sienna;stroke-width:3;opacity:1"/>
	<rect id="V00" x="466" y="56" rx="8" ry="8" width="50" height="150" style="visibility:hidden;fill:RGB(220,141,61);stroke:Sienna;stroke-width:3;opacity:1"/>
	<rect id="V00" x="466" y="56" rx="8" ry="8" width="50" height="150" style="visibility:hidden;fill:RGB(220,141,61);stroke:Sienna;stroke-width:3;opacity:1"/>
	<rect id="v01" x="466" y="106" rx="8" ry="8" width="50" height="100" style="visibility:hidden;fill:RGB(220,141,61);stroke:Sienna;stroke-width:3;opacity:1"/>
	<rect id="h01" x="466" y="106" rx="8" ry="8" width="100" height="50" style="visibility:hidden;fill:RGB(220,141,61);stroke:Sienna;stroke-width:3;opacity:1"/>
	<rect id="V01" x="466" y="106" rx="8" ry="8" width="50" height="150" style="visibility:hidden;fill:RGB(220,141,61);stroke:Sienna;stroke-width:3;opacity:1"/>
	<rect id="V01" x="466" y="106" rx="8" ry="8" width="50" height="150" style="visibility:hidden;fill:RGB(220,141,61);stroke:Sienna;stroke-width:3;opacity:1"/>
	<rect id="v02" x="466" y="156" rx="8" ry="8" width="50" height="100" style="visibility:hidden;fill:RGB(220,141,61);stroke:Sienna;stroke-width:3;opacity:1"/>
	<rect id="h02" x="466" y="156" rx="8" ry="8" width="100" height="50" style="visibility:hidden;fill:RGB(220,141,61);stroke:Sienna;stroke-width:3;opacity:1"/>
	<rect id="V02" x="466" y="156" rx="8" ry="8" width="50" height="150" style="visibility:hidden;fill:RGB(220,141,61);stroke:Sienna;stroke-width:3;opacity:1"/>
	<rect id="V02" x="466" y="156" rx="8" ry="8" width="50" height="150" style="visibility:hidden;fill:RGB(220,141,61);stroke:Sienna;stroke-width:3;opacity:1"/>
	<rect id="v03" x="466" y="206" rx="8" ry="8" width="50" height="100" style="visibility:hidden;fill:RGB(220,141,61);stroke:Sienna;stroke-width:3;opacity:1"/>
	<rect id="h03" x="466" y="206" rx="8" ry="8" width="100" height="50" style="visibility:hidden;fill:RGB(220,141,61);stroke:Sienna;stroke-width:3;opacity:1"/>
	<rect id="V03" x="466" y="206" rx="8" ry="8" width="50" height="150" style="visibility:hidden;fill:RGB(220,141,61);stroke:Sienna;stroke-width:3;opacity:1"/>
	<rect id="V03" x="466" y="206" rx="8" ry="8" width="50" height="150" style="visibility:hidden;fill:RGB(220,141,61);stroke:Sienna;stroke-width:3;opacity:1"/>
	<rect id="v04" x="466" y="256" rx="8" ry="8" width="50" height="100" style="visibility:hidden;fill:RGB(220,141,61);stroke:Sienna;stroke-width:3;opacity:1"/>
	<rect id="h04" x="466" y="256" rx="8" ry="8" width="100" height="50" style="visibility:hidden;fill:RGB(220,141,61);stroke:Sienna;stroke-width:3;opacity:1"/>
	<rect id="V04" x="466" y="256" rx="8" ry="8" width="50" height="150" style="visibility:hidden;fill:RGB(220,141,61);stroke:Sienna;stroke-width:3;opacity:1"/>
	<rect id="v05" x="466" y="306" rx="8" ry="8" width="50" height="100" style="visibility:hidden;fill:RGB(220,141,61);stroke:Sienna;stroke-width:3;opacity:1"/>
	<rect id="h05" x="466" y="306" rx="8" ry="8" width="100" height="50" style="visibility:hidden;fill:RGB(220,141,61);stroke:Sienna;stroke-width:3;opacity:1"/>
	<rect id="V05" x="466" y="306" rx="8" ry="8" width="50" height="150" style="visibility:hidden;fill:RGB(220,141,61);stroke:Sienna;stroke-width:3;opacity:1"/>
	<rect id="v10" x="516" y="56" rx="8" ry="8" width="50" height="100" style="visibility:hidden;fill:RGB(220,141,61);stroke:Sienna;stroke-width:3;opacity:1"/>
	<rect id="h10" x="516" y="56" rx="8" ry="8" width="100" height="50" style="visibility:hidden;fill:RGB(220,141,61);stroke:Sienna;stroke-width:3;opacity:1"/>
	<rect id="V10" x="516" y="56" rx="8" ry="8" width="50" height="150" style="visibility:hidden;fill:RGB(220,141,61);stroke:Sienna;stroke-width:3;opacity:1"/>
	<rect id="V10" x="516" y="56" rx="8" ry="8" width="50" height="150" style="visibility:hidden;fill:RGB(220,141,61);stroke:Sienna;stroke-width:3;opacity:1"/>
	<rect id="v11" x="516" y="106" rx="8" ry="8" width="50" height="100" style="visibility:hidden;fill:RGB(220,141,61);stroke:Sienna;stroke-width:3;opacity:1"/>
	<rect id="h11" x="516" y="106" rx="8" ry="8" width="100" height="50" style="visibility:hidden;fill:RGB(220,141,61);stroke:Sienna;stroke-width:3;opacity:1"/>
	<rect id="V11" x="516" y="106" rx="8" ry="8" width="50" height="150" style="visibility:hidden;fill:RGB(220,141,61);stroke:Sienna;stroke-width:3;opacity:1"/>
	<rect id="V11" x="516" y="106" rx="8" ry="8" width="50" height="150" style="visibility:hidden;fill:RGB(220,141,61);stroke:Sienna;stroke-width:3;opacity:1"/>
	<rect id="v12" x="516" y="156" rx="8" ry="8" width="50" height="100" style="visibility:hidden;fill:RGB(220,141,61);stroke:Sienna;stroke-width:3;opacity:1"/>
	<rect id="h12" x="516" y="156" rx="8" ry="8" width="100" height="50" style="visibility:hidden;fill:RGB(220,141,61);stroke:Sienna;stroke-width:3;opacity:1"/>
	<rect id="V12" x="516" y="156" rx="8" ry="8" width="50" height="150" style="visibility:hidden;fill:RGB(220,141,61);stroke:Sienna;stroke-width:3;opacity:1"/>
	<rect id="V12" x="516" y="156" rx="8" ry="8" width="50" height="150" style="visibility:hidden;fill:RGB(220,141,61);stroke:Sienna;stroke-width:3;opacity:1"/>
	<rect id="v13" x="516" y="206" rx="8" ry="8" width="50" height="100" style="visibility:hidden;fill:RGB(220,141,61);stroke:Sienna;stroke-width:3;opacity:1"/>
	<rect id="h13" x="516" y="206" rx="8" ry="8" width="100" height="50" style="visibility:hidden;fill:RGB(220,141,61);stroke:Sienna;stroke-width:3;opacity:1"/>
	<rect id="V13" x="516" y="206" rx="8" ry="8" width="50" height="150" style="visibility:hidden;fill:RGB(220,141,61);stroke:Sienna;stroke-width:3;opacity:1"/>
	<rect id="V13" x="516" y="206" rx="8" ry="8" width="50" height="150" style="visibility:hidden;fill:RGB(220,141,61);stroke:Sienna;stroke-width:3;opacity:1"/>
	<rect id="v14" x="516" y="256" rx="8" ry="8" width="50" height="100" style="visibility:hidden;fill:RGB(220,141,61);stroke:Sienna;stroke-width:3;opacity:1"/>
	<rect id="h14" x="516" y="256" rx="8" ry="8" width="100" height="50" style="visibility:hidden;fill:RGB(220,141,61);stroke:Sienna;stroke-width:3;opacity:1"/>
	<rect id="V14" x="516" y="256" rx="8" ry="8" width="50" height="150" style="visibility:hidden;fill:RGB(220,141,61);stroke:Sienna;stroke-width:3;opacity:1"/>
	<rect id="v15" x="516" y="306" rx="8" ry="8" width="50" height="100" style="visibility:hidden;fill:RGB(220,141,61);stroke:Sienna;stroke-width:3;opacity:1"/>
	<rect id="h15" x="516" y="306" rx="8" ry="8" width="100" height="50" style="visibility:hidden;fill:RGB(220,141,61);stroke:Sienna;stroke-width:3;opacity:1"/>
	<rect id="V15" x="516" y="306" rx="8" ry="8" width="50" height="150" style="visibility:hidden;fill:RGB(220,141,61);stroke:Sienna;stroke-width:3;opacity:1"/>
	<rect id="v20" x="566" y="56" rx="8" ry="8" width="50" height="100" style="visibility:hidden;fill:RGB(220,141,61);stroke:Sienna;stroke-width:3;opacity:1"/>
	<rect id="h20" x="566" y="56" rx="8" ry="8" width="100" height="50" style="visibility:hidden;fill:RGB(220,141,61);stroke:Sienna;stroke-width:3;opacity:1"/>
	<rect id="V20" x="566" y="56" rx="8" ry="8" width="50" height="150" style="visibility:hidden;fill:RGB(220,141,61);stroke:Sienna;stroke-width:3;opacity:1"/>
	<rect id="V20" x="566" y="56" rx="8" ry="8" width="50" height="150" style="visibility:hidden;fill:RGB(220,141,61);stroke:Sienna;stroke-width:3;opacity:1"/>
	<rect id="v21" x="566" y="106" rx="8" ry="8" width="50" height="100" style="visibility:hidden;fill:RGB(220,141,61);stroke:Sienna;stroke-width:3;opacity:1"/>
	<rect id="h21" x="566" y="106" rx="8" ry="8" width="100" height="50" style="visibility:hidden;fill:RGB(220,141,61);stroke:Sienna;stroke-width:3;opacity:1"/>
	<rect id="V21" x="566" y="106" rx="8" ry="8" width="50" height="150" style="visibility:hidden;fill:RGB(220,141,61);stroke:Sienna;stroke-width:3;opacity:1"/>
	<rect id="V21" x="566" y="106" rx="8" ry="8" width="50" height="150" style="visibility:hidden;fill:RGB(220,141,61);stroke:Sienna;stroke-width:3;opacity:1"/>
	<rect id="v22" x="566" y="156" rx="8" ry="8" width="50" height="100" style="visibility:hidden;fill:RGB(220,141,61);stroke:Sienna;stroke-width:3;opacity:1"/>
	<rect id="h22" x="566" y="156" rx="8" ry="8" width="100" height="50" style="visibility:hidden;fill:RGB(220,141,61);stroke:Sienna;stroke-width:3;opacity:1"/>
	<rect id="V22" x="566" y="156" rx="8" ry="8" width="50" height="150" style="visibility:hidden;fill:RGB(220,141,61);stroke:Sienna;stroke-width:3;opacity:1"/>
	<rect id="V22" x="566" y="156" rx="8" ry="8" width="50" height="150" style="visibility:hidden;fill:RGB(220,141,61);stroke:Sienna;stroke-width:3;opacity:1"/>
	<rect id="v23" x="566" y="206" rx="8" ry="8" width="50" height="100" style="visibility:hidden;fill:RGB(220,141,61);stroke:Sienna;stroke-width:3;opacity:1"/>
	<rect id="h23" x="566" y="206" rx="8" ry="8" width="100" height="50" style="visibility:hidden;fill:RGB(220,141,61);stroke:Sienna;stroke-width:3;opacity:1"/>
	<rect id="V23" x="566" y="206" rx="8" ry="8" width="50" height="150" style="visibility:hidden;fill:RGB(220,141,61);stroke:Sienna;stroke-width:3;opacity:1"/>
	<rect id="V23" x="566" y="206" rx="8" ry="8" width="50" height="150" style="visibility:hidden;fill:RGB(220,141,61);stroke:Sienna;stroke-width:3;opacity:1"/>
	<rect id="v24" x="566" y="256" rx="8" ry="8" width="50" height="100" style="visibility:hidden;fill:RGB(220,141,61);stroke:Sienna;stroke-width:3;opacity:1"/>
	<rect id="h24" x="566" y="256" rx="8" ry="8" width="100" height="50" style="visibility:hidden;fill:RGB(220,141,61);stroke:Sienna;stroke-width:3;opacity:1"/>
	<rect id="V24" x="566" y="256" rx="8" ry="8" width="50" height="150" style="visibility:hidden;fill:RGB(220,141,61);stroke:Sienna;stroke-width:3;opacity:1"/>
	<rect id="v25" x="566" y="306" rx="8" ry="8" width="50" height="100" style="visibility:hidden;fill:RGB(220,141,61);stroke:Sienna;stroke-width:3;opacity:1"/>
	<rect id="h25" x="566" y="306" rx="8" ry="8" width="100" height="50" style="visibility:hidden;fill:RGB(220,141,61);stroke:Sienna;stroke-width:3;opacity:1"/>
	<rect id="V25" x="566" y="306" rx="8" ry="8" width="50" height="150" style="visibility:hidden;fill:RGB(220,141,61);stroke:Sienna;stroke-width:3;opacity:1"/>
	<rect id="v30" x="616" y="56" rx="8" ry="8" width="50" height="100" style="visibility:hidden;fill:RGB(220,141,61);stroke:Sienna;stroke-width:3;opacity:1"/>
	<rect id="h30" x="616" y="56" rx="8" ry="8" width="100" height="50" style="visibility:hidden;fill:RGB(220,141,61);stroke:Sienna;stroke-width:3;opacity:1"/>
	<rect id="V30" x="616" y="56" rx="8" ry="8" width="50" height="150" style="visibility:hidden;fill:RGB(220,141,61);stroke:Sienna;stroke-width:3;opacity:1"/>
	<rect id="V30" x="616" y="56" rx="8" ry="8" width="50" height="150" style="visibility:hidden;fill:RGB(220,141,61);stroke:Sienna;stroke-width:3;opacity:1"/>
	<rect id="v31" x="616" y="106" rx="8" ry="8" width="50" height="100" style="visibility:hidden;fill:RGB(220,141,61);stroke:Sienna;stroke-width:3;opacity:1"/>
	<rect id="h31" x="616" y="106" rx="8" ry="8" width="100" height="50" style="visibility:hidden;fill:RGB(220,141,61);stroke:Sienna;stroke-width:3;opacity:1"/>
	<rect id="V31" x="616" y="106" rx="8" ry="8" width="50" height="150" style="visibility:hidden;fill:RGB(220,141,61);stroke:Sienna;stroke-width:3;opacity:1"/>
	<rect id="V31" x="616" y="106" rx="8" ry="8" width="50" height="150" style="visibility:hidden;fill:RGB(220,141,61);stroke:Sienna;stroke-width:3;opacity:1"/>
	<rect id="v32" x="616" y="156" rx="8" ry="8" width="50" height="100" style="visibility:hidden;fill:RGB(220,141,61);stroke:Sienna;stroke-width:3;opacity:1"/>
	<rect id="h32" x="616" y="156" rx="8" ry="8" width="100" height="50" style="visibility:hidden;fill:RGB(220,141,61);stroke:Sienna;stroke-width:3;opacity:1"/>
	<rect id="V32" x="616" y="156" rx="8" ry="8" width="50" height="150" style="visibility:hidden;fill:RGB(220,141,61);stroke:Sienna;stroke-width:3;opacity:1"/>
	<rect id="V32" x="616" y="156" rx="8" ry="8" width="50" height="150" style="visibility:hidden;fill:RGB(220,141,61);stroke:Sienna;stroke-width:3;opacity:1"/>
	<rect id="v33" x="616" y="206" rx="8" ry="8" width="50" height="100" style="visibility:hidden;fill:RGB(220,141,61);stroke:Sienna;stroke-width:3;opacity:1"/>
	<rect id="h33" x="616" y="206" rx="8" ry="8" width="100" height="50" style="visibility:hidden;fill:RGB(220,141,61);stroke:Sienna;stroke-width:3;opacity:1"/>
	<rect id="V33" x="616" y="206" rx="8" ry="8" width="50" height="150" style="visibility:hidden;fill:RGB(220,141,61);stroke:Sienna;stroke-width:3;opacity:1"/>
	<rect id="V33" x="616" y="206" rx="8" ry="8" width="50" height="150" style="visibility:hidden;fill:RGB(220,141,61);stroke:Sienna;stroke-width:3;opacity:1"/>
	<rect id="v34" x="616" y="256" rx="8" ry="8" width="50" height="100" style="visibility:hidden;fill:RGB(220,141,61);stroke:Sienna;stroke-width:3;opacity:1"/>
	<rect id="h34" x="616" y="256" rx="8" ry="8" width="100" height="50" style="visibility:hidden;fill:RGB(220,141,61);stroke:Sienna;stroke-width:3;opacity:1"/>
	<rect id="V34" x="616" y="256" rx="8" ry="8" width="50" height="150" style="visibility:hidden;fill:RGB(220,141,61);stroke:Sienna;stroke-width:3;opacity:1"/>
	<rect id="v35" x="616" y="306" rx="8" ry="8" width="50" height="100" style="visibility:hidden;fill:RGB(220,141,61);stroke:Sienna;stroke-width:3;opacity:1"/>
	<rect id="h35" x="616" y="306" rx="8" ry="8" width="100" height="50" style="visibility:hidden;fill:RGB(220,141,61);stroke:Sienna;stroke-width:3;opacity:1"/>
	<rect id="V35" x="616" y="306" rx="8" ry="8" width="50" height="150" style="visibility:hidden;fill:RGB(220,141,61);stroke:Sienna;stroke-width:3;opacity:1"/>
	<rect id="v40" x="666" y="56" rx="8" ry="8" width="50" height="100" style="visibility:hidden;fill:RGB(220,141,61);stroke:Sienna;stroke-width:3;opacity:1"/>
	<rect id="h40" x="666" y="56" rx="8" ry="8" width="100" height="50" style="visibility:hidden;fill:RGB(220,141,61);stroke:Sienna;stroke-width:3;opacity:1"/>
	<rect id="V40" x="666" y="56" rx="8" ry="8" width="50" height="150" style="visibility:hidden;fill:RGB(220,141,61);stroke:Sienna;stroke-width:3;opacity:1"/>
	<rect id="v41" x="666" y="106" rx="8" ry="8" width="50" height="100" style="visibility:hidden;fill:RGB(220,141,61);stroke:Sienna;stroke-width:3;opacity:1"/>
	<rect id="h41" x="666" y="106" rx="8" ry="8" width="100" height="50" style="visibility:hidden;fill:RGB(220,141,61);stroke:Sienna;stroke-width:3;opacity:1"/>
	<rect id="V41" x="666" y="106" rx="8" ry="8" width="50" height="150" style="visibility:hidden;fill:RGB(220,141,61);stroke:Sienna;stroke-width:3;opacity:1"/>
	<rect id="v42" x="666" y="156" rx="8" ry="8" width="50" height="100" style="visibility:hidden;fill:RGB(220,141,61);stroke:Sienna;stroke-width:3;opacity:1"/>
	<rect id="h42" x="666" y="156" rx="8" ry="8" width="100" height="50" style="visibility:hidden;fill:RGB(220,141,61);stroke:Sienna;stroke-width:3;opacity:1"/>
	<rect id="V42" x="666" y="156" rx="8" ry="8" width="50" height="150" style="visibility:hidden;fill:RGB(220,141,61);stroke:Sienna;stroke-width:3;opacity:1"/>
	<rect id="v43" x="666" y="206" rx="8" ry="8" width="50" height="100" style="visibility:hidden;fill:RGB(220,141,61);stroke:Sienna;stroke-width:3;opacity:1"/>
	<rect id="h43" x="666" y="206" rx="8" ry="8" width="100" height="50" style="visibility:hidden;fill:RGB(220,141,61);stroke:Sienna;stroke-width:3;opacity:1"/>
	<rect id="V43" x="666" y="206" rx="8" ry="8" width="50" height="150" style="visibility:hidden;fill:RGB(220,141,61);stroke:Sienna;stroke-width:3;opacity:1"/>
	<rect id="v44" x="666" y="256" rx="8" ry="8" width="50" height="100" style="visibility:hidden;fill:RGB(220,141,61);stroke:Sienna;stroke-width:3;opacity:1"/>
	<rect id="h44" x="666" y="256" rx="8" ry="8" width="100" height="50" style="visibility:hidden;fill:RGB(220,141,61);stroke:Sienna;stroke-width:3;opacity:1"/>
	<rect id="v45" x="666" y="306" rx="8" ry="8" width="50" height="100" style="visibility:hidden;fill:RGB(220,141,61);stroke:Sienna;stroke-width:3;opacity:1"/>
	<rect id="h45" x="666" y="306" rx="8" ry="8" width="100" height="50" style="visibility:hidden;fill:RGB(220,141,61);stroke:Sienna;stroke-width:3;opacity:1"/>
	<rect id="v50" x="716" y="56" rx="8" ry="8" width="50" height="100" style="visibility:hidden;fill:RGB(220,141,61);stroke:Sienna;stroke-width:3;opacity:1"/>
	<rect id="h50" x="716" y="56" rx="8" ry="8" width="100" height="50" style="visibility:hidden;fill:RGB(220,141,61);stroke:Sienna;stroke-width:3;opacity:1"/>
	<rect id="V50" x="716" y="56" rx="8" ry="8" width="50" height="150" style="visibility:hidden;fill:RGB(220,141,61);stroke:Sienna;stroke-width:3;opacity:1"/>
	<rect id="v51" x="716" y="106" rx="8" ry="8" width="50" height="100" style="visibility:hidden;fill:RGB(220,141,61);stroke:Sienna;stroke-width:3;opacity:1"/>
	<rect id="h51" x="716" y="106" rx="8" ry="8" width="100" height="50" style="visibility:hidden;fill:RGB(220,141,61);stroke:Sienna;stroke-width:3;opacity:1"/>
	<rect id="V51" x="716" y="106" rx="8" ry="8" width="50" height="150" style="visibility:hidden;fill:RGB(220,141,61);stroke:Sienna;stroke-width:3;opacity:1"/>
	<rect id="v52" x="716" y="156" rx="8" ry="8" width="50" height="100" style="visibility:hidden;fill:RGB(220,141,61);stroke:Sienna;stroke-width:3;opacity:1"/>
	<rect id="h52" x="716" y="156" rx="8" ry="8" width="100" height="50" style="visibility:hidden;fill:RGB(220,141,61);stroke:Sienna;stroke-width:3;opacity:1"/>
	<rect id="V52" x="716" y="156" rx="8" ry="8" width="50" height="150" style="visibility:hidden;fill:RGB(220,141,61);stroke:Sienna;stroke-width:3;opacity:1"/>
	<rect id="v53" x="716" y="206" rx="8" ry="8" width="50" height="100" style="visibility:hidden;fill:RGB(220,141,61);stroke:Sienna;stroke-width:3;opacity:1"/>
	<rect id="h53" x="716" y="206" rx="8" ry="8" width="100" height="50" style="visibility:hidden;fill:RGB(220,141,61);stroke:Sienna;stroke-width:3;opacity:1"/>
	<rect id="V53" x="716" y="206" rx="8" ry="8" width="50" height="150" style="visibility:hidden;fill:RGB(220,141,61);stroke:Sienna;stroke-width:3;opacity:1"/>
	<rect id="v54" x="716" y="256" rx="8" ry="8" width="50" height="100" style="visibility:hidden;fill:RGB(220,141,61);stroke:Sienna;stroke-width:3;opacity:1"/>
	<rect id="h54" x="716" y="256" rx="8" ry="8" width="100" height="50" style="visibility:hidden;fill:RGB(220,141,61);stroke:Sienna;stroke-width:3;opacity:1"/>
	<rect id="v55" x="716" y="306" rx="8" ry="8" width="50" height="100" style="visibility:hidden;fill:RGB(220,141,61);stroke:Sienna;stroke-width:3;opacity:1"/>
	<rect id="h55" x="716" y="306" rx="8" ry="8" width="100" height="50" style="visibility:hidden;fill:RGB(220,141,61);stroke:Sienna;stroke-width:3;opacity:1"/>
</svg>
